<mxfile host="app.diagrams.net" agent="Mozilla/5.0 (Windows NT 10.0; Win64; x64; rv:134.0) Gecko/20100101 Firefox/134.0" version="25.0.3">
  <diagram name="PÃ¡gina-1" id="GlAVU_UOuzdOl-vO27ki">
    <mxGraphModel dx="1194" dy="1885" grid="1" gridSize="10" guides="1" tooltips="1" connect="1" arrows="1" fold="1" page="1" pageScale="1" pageWidth="827" pageHeight="1169" math="0" shadow="0">
      <root>
        <mxCell id="0" />
        <mxCell id="1" parent="0" />
        <mxCell id="4PugmEya9Hpgv3zvpcw5-1" value="" style="ellipse;whiteSpace=wrap;html=1;aspect=fixed;hachureGap=4;fontFamily=Architects Daughter;fontSource=https%3A%2F%2Ffonts.googleapis.com%2Fcss%3Ffamily%3DArchitects%2BDaughter;fillColor=#dae8fc;strokeColor=#6c8ebf;shadow=0;strokeWidth=4;" vertex="1" parent="1">
          <mxGeometry x="94" y="110" width="40" height="40" as="geometry" />
        </mxCell>
        <mxCell id="4PugmEya9Hpgv3zvpcw5-6" value="&lt;font face=&quot;Helvetica&quot; style=&quot;font-size: 16px;&quot;&gt;&lt;b&gt;MULTICAST - DE UM PARA UM GRUP&lt;/b&gt;&lt;/font&gt;&lt;font face=&quot;Helvetica&quot; style=&quot;font-size: 16px;&quot;&gt;&lt;b&gt;O&lt;/b&gt;&lt;/font&gt;" style="text;html=1;whiteSpace=wrap;overflow=hidden;rounded=0;fontFamily=Architects Daughter;fontSource=https%3A%2F%2Ffonts.googleapis.com%2Fcss%3Ffamily%3DArchitects%2BDaughter;" vertex="1" parent="1">
          <mxGeometry x="134" y="350" width="305" height="30" as="geometry" />
        </mxCell>
        <mxCell id="4PugmEya9Hpgv3zvpcw5-7" value="" style="ellipse;whiteSpace=wrap;html=1;aspect=fixed;hachureGap=4;fontFamily=Architects Daughter;fontSource=https%3A%2F%2Ffonts.googleapis.com%2Fcss%3Ffamily%3DArchitects%2BDaughter;fillColor=#d5e8d4;strokeColor=#82b366;shadow=0;strokeWidth=4;" vertex="1" parent="1">
          <mxGeometry x="324" y="40" width="40" height="40" as="geometry" />
        </mxCell>
        <mxCell id="4PugmEya9Hpgv3zvpcw5-8" value="" style="ellipse;whiteSpace=wrap;html=1;aspect=fixed;hachureGap=4;fontFamily=Architects Daughter;fontSource=https%3A%2F%2Ffonts.googleapis.com%2Fcss%3Ffamily%3DArchitects%2BDaughter;fillColor=#dae8fc;strokeColor=#6c8ebf;shadow=0;strokeWidth=4;" vertex="1" parent="1">
          <mxGeometry x="364" y="90" width="40" height="40" as="geometry" />
        </mxCell>
        <mxCell id="4PugmEya9Hpgv3zvpcw5-9" value="" style="ellipse;whiteSpace=wrap;html=1;aspect=fixed;hachureGap=4;fontFamily=Architects Daughter;fontSource=https%3A%2F%2Ffonts.googleapis.com%2Fcss%3Ffamily%3DArchitects%2BDaughter;fillColor=#d5e8d4;strokeColor=#82b366;shadow=0;strokeWidth=4;" vertex="1" parent="1">
          <mxGeometry x="374" y="150" width="40" height="40" as="geometry" />
        </mxCell>
        <mxCell id="4PugmEya9Hpgv3zvpcw5-10" value="" style="ellipse;whiteSpace=wrap;html=1;aspect=fixed;hachureGap=4;fontFamily=Architects Daughter;fontSource=https%3A%2F%2Ffonts.googleapis.com%2Fcss%3Ffamily%3DArchitects%2BDaughter;fillColor=#dae8fc;strokeColor=#6c8ebf;shadow=0;strokeWidth=4;" vertex="1" parent="1">
          <mxGeometry x="324" y="200" width="40" height="40" as="geometry" />
        </mxCell>
        <mxCell id="4PugmEya9Hpgv3zvpcw5-12" value="" style="ellipse;whiteSpace=wrap;html=1;aspect=fixed;hachureGap=4;fontFamily=Architects Daughter;fontSource=https%3A%2F%2Ffonts.googleapis.com%2Fcss%3Ffamily%3DArchitects%2BDaughter;fillColor=#d5e8d4;strokeColor=#82b366;shadow=0;strokeWidth=4;" vertex="1" parent="1">
          <mxGeometry x="250" y="270" width="40" height="40" as="geometry" />
        </mxCell>
        <mxCell id="4PugmEya9Hpgv3zvpcw5-13" value="" style="shape=flexArrow;endArrow=classic;html=1;rounded=0;hachureGap=4;fontFamily=Architects Daughter;fontSource=https%3A%2F%2Ffonts.googleapis.com%2Fcss%3Ffamily%3DArchitects%2BDaughter;strokeWidth=3;fillColor=#f8cecc;strokeColor=#b85450;" edge="1" parent="1">
          <mxGeometry width="50" height="50" relative="1" as="geometry">
            <mxPoint x="144" y="130" as="sourcePoint" />
            <mxPoint x="364" y="170" as="targetPoint" />
            <Array as="points">
              <mxPoint x="244" y="130" />
            </Array>
          </mxGeometry>
        </mxCell>
        <mxCell id="4PugmEya9Hpgv3zvpcw5-14" value="" style="shape=flexArrow;endArrow=classic;html=1;rounded=0;hachureGap=4;fontFamily=Architects Daughter;fontSource=https%3A%2F%2Ffonts.googleapis.com%2Fcss%3Ffamily%3DArchitects%2BDaughter;strokeWidth=3;fillColor=#f8cecc;strokeColor=#b85450;entryX=0.5;entryY=1;entryDx=0;entryDy=0;" edge="1" parent="1" target="4PugmEya9Hpgv3zvpcw5-7">
          <mxGeometry width="50" height="50" relative="1" as="geometry">
            <mxPoint x="144" y="130" as="sourcePoint" />
            <mxPoint x="364" y="170" as="targetPoint" />
            <Array as="points">
              <mxPoint x="244" y="130" />
            </Array>
          </mxGeometry>
        </mxCell>
        <mxCell id="4PugmEya9Hpgv3zvpcw5-15" value="" style="shape=flexArrow;endArrow=classic;html=1;rounded=0;hachureGap=4;fontFamily=Architects Daughter;fontSource=https%3A%2F%2Ffonts.googleapis.com%2Fcss%3Ffamily%3DArchitects%2BDaughter;strokeWidth=3;fillColor=#f8cecc;strokeColor=#b85450;entryX=0.25;entryY=0;entryDx=0;entryDy=0;entryPerimeter=0;" edge="1" parent="1">
          <mxGeometry width="50" height="50" relative="1" as="geometry">
            <mxPoint x="144" y="130" as="sourcePoint" />
            <mxPoint x="274" y="250" as="targetPoint" />
            <Array as="points">
              <mxPoint x="244" y="130" />
            </Array>
          </mxGeometry>
        </mxCell>
        <mxCell id="4PugmEya9Hpgv3zvpcw5-16" value="" style="ellipse;whiteSpace=wrap;html=1;aspect=fixed;hachureGap=4;fontFamily=Architects Daughter;fontSource=https%3A%2F%2Ffonts.googleapis.com%2Fcss%3Ffamily%3DArchitects%2BDaughter;fillColor=#d5e8d4;strokeColor=#82b366;shadow=0;strokeWidth=4;" vertex="1" parent="1">
          <mxGeometry x="220" width="40" height="40" as="geometry" />
        </mxCell>
        <mxCell id="4PugmEya9Hpgv3zvpcw5-17" value="" style="ellipse;whiteSpace=wrap;html=1;aspect=fixed;hachureGap=4;fontFamily=Architects Daughter;fontSource=https%3A%2F%2Ffonts.googleapis.com%2Fcss%3Ffamily%3DArchitects%2BDaughter;fillColor=#dae8fc;strokeColor=#6c8ebf;shadow=0;strokeWidth=4;" vertex="1" parent="1">
          <mxGeometry x="160" y="260" width="40" height="40" as="geometry" />
        </mxCell>
        <mxCell id="4PugmEya9Hpgv3zvpcw5-19" value="" style="shape=flexArrow;endArrow=classic;html=1;rounded=0;hachureGap=4;fontFamily=Architects Daughter;fontSource=https%3A%2F%2Ffonts.googleapis.com%2Fcss%3Ffamily%3DArchitects%2BDaughter;strokeWidth=3;fillColor=#f8cecc;strokeColor=#b85450;entryX=0.725;entryY=1.05;entryDx=0;entryDy=0;entryPerimeter=0;" edge="1" parent="1" target="4PugmEya9Hpgv3zvpcw5-16">
          <mxGeometry width="50" height="50" relative="1" as="geometry">
            <mxPoint x="140" y="130" as="sourcePoint" />
            <mxPoint x="270" y="250" as="targetPoint" />
            <Array as="points">
              <mxPoint x="240" y="130" />
            </Array>
          </mxGeometry>
        </mxCell>
      </root>
    </mxGraphModel>
  </diagram>
</mxfile>
